<?xml version="1.0" encoding="UTF-8"?>
<!DOCTYPE svg PUBLIC "-//W3C//DTD SVG 1.0//EN" "http://www.w3.org/TR/2001/REC-SVG-20010904/DTD/svg10.dtd">
<!-- Creator: CorelDRAW -->
<svg xmlns="http://www.w3.org/2000/svg" xml:space="preserve" width="19.9295mm" height="19.9296mm" version="1.0" style="shape-rendering:geometricPrecision; text-rendering:geometricPrecision; image-rendering:optimizeQuality; fill-rule:evenodd; clip-rule:evenodd"
viewBox="0 0 463.84 463.84"
 xmlns:xlink="http://www.w3.org/1999/xlink"
 xmlns:xodm="http://www.corel.com/coreldraw/odm/2003">
 <defs>
  <style type="text/css">
   <![CDATA[
    .fil0 {fill:#234F40}
   ]]>
  </style>
 </defs>
 <g id="Layer_x0020_1">
  <metadata id="CorelCorpID_0Corel-Layer"/>
  <path class="fil0" d="M57.58 0l348.68 0c31.67,0 57.58,25.91 57.58,57.58l0 348.68c0,31.67 -25.91,57.58 -57.58,57.58l-348.68 0c-31.67,0 -57.58,-25.91 -57.58,-57.58l0 -348.68c0,-31.67 25.91,-57.58 57.58,-57.58zm333.66 182.96c-31.66,27.03 -82.04,24.5 -110.19,19.61l-1.59 9.83c29.22,5.43 93.1,5.49 111.78,-29.43zm18.26 -42.95c-43.35,47.24 -80.8,35.51 -124.73,33.29l-2.27 15.06c45.69,2.84 104.97,8.54 127,-48.35zm-368.21 53.11c8.95,-62.17 38.3,-105.88 114.3,-117.85 76,-11.97 203.68,71.57 266.96,-17.29 0,73.93 -47.48,95.5 -76.18,100.12 -28.71,4.62 -47.54,-2.26 -70.47,-3.49 -29.43,131.4 -32.01,178.37 9.06,251.24 -43.57,-8.5 -74.12,-36.44 -91.28,-84.44 -15.9,-57.35 -2.54,-120.42 9.27,-173.74 -109.28,-16.04 -133.76,10.28 -161.66,45.45z"/>
 </g>
</svg>
