<?xml version="1.0" encoding="UTF-8"?>
<!DOCTYPE svg PUBLIC "-//W3C//DTD SVG 1.0//EN" "http://www.w3.org/TR/2001/REC-SVG-20010904/DTD/svg10.dtd">
<!-- Creator: CorelDRAW -->
<svg xmlns="http://www.w3.org/2000/svg" xml:space="preserve" width="91.5414mm" height="20.1262mm" version="1.0" style="shape-rendering:geometricPrecision; text-rendering:geometricPrecision; image-rendering:optimizeQuality; fill-rule:evenodd; clip-rule:evenodd"
viewBox="0 0 9786.02 2151.54"
 xmlns:xlink="http://www.w3.org/1999/xlink"
 xmlns:xodm="http://www.corel.com/coreldraw/odm/2003">
 <defs>
  <style type="text/css">
   <![CDATA[
    .fil1 {fill:#FEFEFE}
    .fil0 {fill:#234F40}
    .fil3 {fill:#009846;fill-rule:nonzero}
    .fil2 {fill:#234F40;fill-rule:nonzero}
   ]]>
  </style>
 </defs>
 <g id="Layer_x0020_1">
  <metadata id="CorelCorpID_0Corel-Layer"/>
  <rect class="fil0" x="0" y="10.51" width="2130.52" height="2130.52" rx="231.02" ry="264.48"/>
  <g id="_2837883429456">
   <path class="fil1" d="M189.66 897.61c41.13,-285.56 175.92,-486.33 525.02,-541.33 349.1,-55 935.56,328.76 1226.21,-79.44 0,339.57 -218.08,438.66 -349.94,459.9 -131.85,21.22 -218.36,-10.37 -323.68,-16.04 -135.18,603.55 -147.02,819.28 41.63,1154.03 -200.11,-39.03 -340.47,-167.38 -419.25,-387.84 -73.01,-263.41 -11.66,-553.14 42.56,-798.03 -501.93,-73.7 -614.39,47.22 -742.55,208.76z"/>
   <path class="fil1" d="M1880.94 653.65c-199.14,217 -371.11,163.09 -572.93,152.9l-10.42 69.19c209.86,13.06 482.15,39.22 583.36,-222.09z"/>
   <path class="fil1" d="M1797.08 850.91c-145.42,124.16 -376.85,112.52 -506.11,90.05l-7.32 45.14c134.22,24.96 427.63,25.23 513.43,-135.2z"/>
  </g>
  <polygon class="fil2" points="2923.5,1249.88 2923.5,196.17 2519.02,196.17 2519.02,0 3537.15,0 3537.15,196.17 3132.68,196.17 3132.68,1249.88 "/>
  <path id="_1" class="fil2" d="M3676.03 1249.88l0 -1249.88 516.45 0c12.15,0 27.77,0.29 46.87,1.15 19.1,0.88 36.74,2.9 52.95,5.79 72.33,10.99 132.22,35 179.38,72.04 47.15,37.03 82.17,83.61 105.02,140.03 22.86,56.41 34.14,119.2 34.14,188.06 0,101.84 -25.75,189.22 -77.25,262.41 -51.51,73.2 -130.49,118.62 -236.96,135.98l-89.4 7.81 -322.01 0 0 436.59 -209.19 0zm717.82 0l-246.51 -508.63 212.65 -46.88 270.81 555.51 -236.95 0zm-508.63 -631.89l298.58 0c11.57,0 24.59,-0.58 39.06,-1.73 14.46,-1.15 27.77,-3.47 39.92,-6.94 34.72,-8.68 62.21,-24.02 82.18,-46.01 19.96,-21.99 34.13,-46.87 42.53,-74.64 8.39,-27.77 12.44,-54.97 12.44,-81.59 0,-26.62 -4.05,-54.1 -12.44,-82.18 -8.39,-28.06 -22.57,-52.94 -42.53,-74.93 -19.97,-21.99 -47.45,-37.33 -82.18,-46.01 -12.14,-3.46 -25.45,-5.78 -39.92,-6.65 -14.47,-0.87 -27.5,-1.15 -39.06,-1.15l-298.58 0 0 421.83z"/>
  <polygon id="_2" class="fil2" points="4839.12,1249.88 4839.12,0 5048.3,0 5048.3,1249.88 "/>
  <polygon id="_3" class="fil2" points="5589.92,1249.88 5195.85,0 5411.11,0 5740.94,1046.78 6075.11,0 6290.37,0 5896.31,1249.88 "/>
  <path id="_4" class="fil2" d="M6212.25 1249.88l394.05 -1249.88 306.39 0 394.06 1249.88 -215.26 0 -357.6 -1121.42 46.87 0 -353.26 1121.42 -215.26 0zm219.6 -270.81l0 -195.3 656.18 0 0 195.3 -656.18 0z"/>
  <polygon id="_5" class="fil2" points="7463,1249.88 7463,0 7674.79,0 8254.6,881 8254.6,0 8466.38,0 8466.38,1249.88 8254.6,1249.88 7674.79,368.89 7674.79,1249.88 "/>
  <path id="_6" class="fil2" d="M8622.62 1249.88l394.05 -1249.88 306.39 0 394.06 1249.88 -215.26 0 -357.6 -1121.42 46.87 0 -353.26 1121.42 -215.26 0zm219.6 -270.81l0 -195.3 656.18 0 0 195.3 -656.18 0z"/>
  <path class="fil3" d="M2643.92 1754.35l-22.41 -0.77c-0.46,-18.24 -0.62,-34.47 -0.62,-48.68 0,-14.53 0.62,-27.21 2.01,-37.72 1.39,-10.51 4.18,-19.01 8.5,-25.81 4.33,-6.8 10.51,-11.9 18.71,-14.99 8.34,-3.25 19.16,-4.79 32.75,-4.79 8.66,0 18.55,0.3 29.68,0.77 11.13,0.31 22.88,0.77 35.24,1.24 12.37,0.46 25.2,0.92 38.17,1.39 13.14,0.46 25.66,0.77 38.03,0.77 20.4,0 38.63,-0.16 54.24,-0.16 15.77,-0.15 29.68,-0.15 41.88,-0.3 12.21,-0.16 23.03,-0.47 32.15,-0.78 9.27,-0.31 17.62,-0.77 25.2,-1.39 7.72,-0.62 14.83,-1.24 21.33,-2.01 6.64,-0.93 13.29,-1.85 20.09,-3.09 2.47,7.27 3.86,13.14 3.86,17.78 0,10.04 -4.17,17.62 -12.67,22.87 -8.35,5.41 -20.71,8.04 -37.24,8.04 -15.46,0 -33.85,-0.93 -54.86,-2.94 -21.03,-1.85 -44.82,-3.71 -71.25,-5.56 -0.31,22.41 -0.93,46.21 -1.55,71.55 -0.77,25.35 -1.39,51.62 -2.16,78.67 -0.77,27.21 -1.55,54.86 -2.47,83.15 -0.78,28.29 -1.7,56.56 -2.63,84.85 -0.77,28.28 -1.7,56.41 -2.47,84.07 -0.93,27.83 -1.7,54.71 -2.48,80.68l-53.62 6.8 -4.02 -0.46c1.08,-28.91 2.32,-56.41 3.4,-83 0.93,-26.43 2.01,-52.39 2.94,-78.04 0.77,-25.51 1.7,-50.85 2.47,-76.35 0.77,-25.35 1.39,-51.62 1.7,-78.36 0.46,-26.89 0.93,-54.86 1.24,-83.92 0.3,-29.06 0.46,-59.96 0.46,-92.73 -8.66,-0.31 -17.47,-0.62 -26.28,-0.78 -8.96,-0.3 -17.93,-0.3 -27.2,-0.3 -9.28,0 -17.78,0.15 -25.82,0.46 -8.03,0.15 -15.3,1.24 -21.94,3.09 -6.65,1.86 -12.68,4.64 -17.93,8.5 -5.26,3.87 -9.74,9.28 -13.3,16.23 -3.71,7.11 -6.34,16.08 -8.34,26.9 -1.86,10.82 -2.79,24.11 -2.79,39.87l0 5.25z"/>
  <path id="_1_0" class="fil3" d="M3856.52 1691.3c0,-6.34 -0.46,-11.75 -1.55,-16.23 -0.92,-4.49 -2.78,-8.2 -5.41,-10.98 -2.62,-2.78 -6.18,-4.79 -10.97,-6.18 -4.64,-1.24 -10.66,-1.86 -18.08,-1.86 -4.8,0 -10.21,0.31 -16.23,0.78 -6.19,0.46 -12.99,1.23 -20.72,2.16l-2.47 -21.02c14.84,-2.32 28.6,-4.33 41.26,-6.03 12.68,-1.7 24.58,-3.24 35.55,-4.48 11.13,-1.39 21.49,-2.32 31.22,-2.94 9.59,-0.62 18.71,-0.92 27.36,-0.92 23.81,0 46.52,-0.16 67.85,-0.47 21.33,-0.46 40.33,-0.77 56.87,-1.24 16.39,-0.3 29.99,-0.77 40.64,-1.08 10.67,-0.31 17.16,-0.62 19.63,-0.62 6.96,0 12.22,1.7 15.92,4.95 3.71,3.25 5.57,8.19 5.57,14.99 0,2.79 -0.31,8.04 -0.77,15.92 -0.47,7.89 -1.24,16.85 -2.01,27.05 -0.93,10.21 -1.86,20.87 -2.94,32.31 -0.93,11.28 -2.16,21.79 -3.4,31.69l-21.64 -0.78c0.31,-5.72 0.46,-10.97 0.62,-16.07 0.15,-4.95 0.31,-9.58 0.31,-14.07 0,-12.67 -0.78,-22.87 -2.32,-30.76 -1.55,-8.03 -4.33,-14.22 -8.19,-18.7 -4.02,-4.64 -9.59,-7.73 -16.54,-9.27 -6.96,-1.7 -15.77,-2.63 -26.43,-2.79 -15,-0.15 -28.14,-0.31 -39.42,-0.31 -11.28,-0.15 -22.1,-0.15 -32.61,-0.15l-11.91 0c-5.87,0 -11.59,0 -17.62,0.15 -6.02,0 -13.13,0.31 -21.64,0.47 -0.31,12.67 -0.61,26.58 -0.92,42.03 -0.47,15.46 -0.93,32 -1.39,49.76 -0.31,17.62 -0.93,36.33 -1.4,55.95 -0.46,19.63 -1.08,39.71 -1.7,60.58 19.48,0.93 36.79,1.54 51.77,2.01 15.15,0.31 29.06,0.46 41.88,0.46 15.61,0 29.37,-0.46 41.42,-1.39 11.9,-1.08 23.34,-2.63 34,-4.64 2.48,6.65 3.71,12.52 3.71,17.78 0,4.48 -1.39,8.19 -4.17,11.13 -2.63,3.09 -6.49,5.56 -11.44,7.42 -5.1,1.85 -11.13,3.24 -18.24,4.02 -6.95,0.92 -14.99,1.23 -23.65,1.23 -15.61,0 -33.23,-0.77 -52.85,-2.62 -19.78,-1.71 -40.8,-3.87 -63.36,-6.34 -0.31,8.65 -0.62,19.16 -1.09,31.53 -0.46,12.37 -1.08,25.35 -1.54,39.25 -0.62,13.91 -1.39,28.13 -2.17,42.65 -0.92,14.69 -1.7,28.6 -2.47,41.88 -0.93,13.45 -1.85,25.66 -2.78,36.79 -0.93,10.97 -2.01,20.09 -3.09,27.2 14.68,-2.16 28.9,-3.71 42.8,-4.63 13.92,-0.93 26.44,-1.4 37.86,-1.4 15.77,0 30.61,0.31 44.36,1.24 13.91,0.77 27.51,1.24 41.1,1.24 9.12,0 17,-1.24 23.96,-3.87 6.8,-2.47 12.83,-6.8 17.93,-13.29 5.25,-6.34 9.43,-14.99 12.83,-25.97 3.4,-10.82 6.03,-24.57 8.04,-41.41l20.4 1.23c-0.46,25.35 -2.32,46.21 -5.41,62.6 -3.25,16.53 -7.57,29.52 -13.29,38.94 -5.72,9.58 -12.52,16.23 -20.72,19.78 -8.19,3.71 -17.31,5.57 -27.66,5.57 -8.04,0 -17.01,-0.62 -26.9,-2.17 -9.74,-1.54 -20.56,-3.24 -32.15,-5.1 -11.59,-1.85 -24.27,-3.55 -37.7,-5.1 -13.45,-1.55 -27.98,-2.32 -43.58,-2.32 -13.76,0 -28.91,0.93 -45.44,2.63 -16.54,1.7 -33.38,4.64 -50.69,8.66l-4.17 -0.47c2.32,-14.99 4.33,-33.23 6.03,-54.71 1.7,-21.48 3.24,-44.81 4.64,-70.32 1.39,-25.34 2.47,-52.23 3.4,-80.52 0.92,-28.13 1.7,-56.71 2.31,-85.46 0.62,-28.75 0.93,-57.18 1.24,-85.32 0.16,-28.13 0.31,-54.86 0.31,-80.05z"/>
  <path id="_2_1" class="fil3" d="M5086.6 1657.91c13.14,28.9 26.12,58.11 39.09,87.48 12.99,29.52 26.43,59.5 40.18,90.1 8.5,-13.91 17,-28.29 25.51,-42.65 8.5,-14.53 17.15,-29.83 26.27,-45.74 9.12,-15.92 18.55,-32.77 28.6,-50.38 9.89,-17.78 20.71,-36.95 32.3,-57.49 2.48,-4.18 4.95,-7.58 7.42,-10.2 2.63,-2.63 5.41,-4.8 8.35,-6.34 2.94,-1.39 6.03,-2.48 9.43,-2.94 3.24,-0.62 6.95,-0.77 10.97,-0.77 5.88,0 12.21,0.77 19.32,2.63 7.11,1.85 14.07,5.25 20.87,10.2 -15.61,17.46 -31.22,36.17 -46.67,55.94 -15.61,19.79 -30.76,39.87 -45.59,60.58 -14.68,20.56 -29.06,41.11 -42.8,61.82 -13.76,20.56 -26.74,40.33 -38.65,59.35 16.85,36.46 33.08,72.17 48.68,107.57 15.77,35.24 31.54,69.39 47.6,102.16 3.4,7.11 7.11,12.83 10.97,17.31 4.02,4.33 8.04,7.88 12.37,10.51 4.33,2.47 8.81,4.33 13.29,5.26 4.49,1.08 9.28,1.54 14.07,1.54 6.8,0 13.6,-0.77 20.71,-2.47 6.96,-1.55 14.22,-3.56 21.64,-6.18l6.34 18.54c-19.01,8.2 -36.62,14.84 -52.85,19.94 -16.08,5.1 -29.99,7.73 -41.88,7.73 -5.26,0 -10.2,-0.46 -14.84,-1.54 -4.48,-0.93 -8.81,-2.79 -12.99,-5.41 -4.01,-2.63 -7.88,-6.19 -11.43,-10.82 -3.71,-4.64 -7.11,-10.51 -10.51,-17.78 -15,-32.46 -29.99,-65.53 -44.82,-99.22 -14.84,-33.85 -29.99,-67.7 -45.43,-101.86 -15,24.27 -29.06,47.76 -42.04,70.17 -13.13,22.57 -25.04,43.58 -35.86,63.05 -10.97,19.63 -20.71,37.26 -29.21,53.17 -8.66,15.76 -15.92,29.21 -21.79,40.02l-73.26 8.66 -2.32 -2.48c22.72,-30.45 43.43,-58.11 61.97,-83.45 18.4,-25.2 35.25,-48.53 50.38,-70.02 15.15,-21.48 29.06,-41.41 41.73,-59.96 12.52,-18.55 24.42,-36.17 35.38,-53.16 -7.88,-16.85 -15.61,-33.7 -23.18,-50.69 -7.58,-16.85 -15.15,-33.54 -22.41,-49.92 -7.27,-16.38 -14.53,-32.3 -21.64,-47.75 -7.11,-15.61 -14.07,-30.45 -20.87,-44.66 -3.09,-6.64 -6.34,-12.21 -9.74,-16.54 -3.24,-4.33 -6.8,-7.88 -10.66,-10.35 -3.87,-2.63 -8.2,-4.49 -12.83,-5.57 -4.64,-0.93 -10.05,-1.54 -15.92,-1.54 -10.21,0 -22.57,1.23 -36.79,3.71l-2.63 -19.94c22.88,-5.72 41.72,-10.21 56.72,-13.45 14.84,-3.25 27.05,-4.95 36.31,-4.95 6.03,0 10.98,0.78 14.84,2.32 4.02,1.39 7.57,3.71 10.67,6.8 3.09,3.09 6.02,7.11 8.81,12.06 2.62,4.94 5.56,10.82 8.81,17.62z"/>
  <path id="_3_2" class="fil3" d="M6159.18 1754.35l-22.41 -0.77c-0.46,-18.24 -0.62,-34.47 -0.62,-48.68 0,-14.53 0.62,-27.21 2.01,-37.72 1.39,-10.51 4.18,-19.01 8.5,-25.81 4.33,-6.8 10.51,-11.9 18.71,-14.99 8.34,-3.25 19.16,-4.79 32.75,-4.79 8.66,0 18.55,0.3 29.68,0.77 11.13,0.31 22.88,0.77 35.24,1.24 12.37,0.46 25.2,0.92 38.17,1.39 13.14,0.46 25.66,0.77 38.03,0.77 20.4,0 38.63,-0.16 54.24,-0.16 15.77,-0.15 29.68,-0.15 41.88,-0.3 12.21,-0.16 23.03,-0.47 32.15,-0.78 9.27,-0.31 17.62,-0.77 25.2,-1.39 7.72,-0.62 14.83,-1.24 21.33,-2.01 6.64,-0.93 13.29,-1.85 20.09,-3.09 2.47,7.27 3.86,13.14 3.86,17.78 0,10.04 -4.17,17.62 -12.67,22.87 -8.35,5.41 -20.71,8.04 -37.24,8.04 -15.46,0 -33.85,-0.93 -54.86,-2.94 -21.03,-1.85 -44.82,-3.71 -71.25,-5.56 -0.31,22.41 -0.93,46.21 -1.55,71.55 -0.77,25.35 -1.39,51.62 -2.16,78.67 -0.77,27.21 -1.55,54.86 -2.47,83.15 -0.78,28.29 -1.7,56.56 -2.63,84.85 -0.77,28.28 -1.7,56.41 -2.47,84.07 -0.93,27.83 -1.7,54.71 -2.48,80.68l-53.62 6.8 -4.02 -0.46c1.08,-28.91 2.32,-56.41 3.4,-83 0.93,-26.43 2.01,-52.39 2.94,-78.04 0.77,-25.51 1.7,-50.85 2.47,-76.35 0.77,-25.35 1.39,-51.62 1.7,-78.36 0.46,-26.89 0.93,-54.86 1.24,-83.92 0.3,-29.06 0.46,-59.96 0.46,-92.73 -8.66,-0.31 -17.47,-0.62 -26.28,-0.78 -8.96,-0.3 -17.93,-0.3 -27.2,-0.3 -9.28,0 -17.78,0.15 -25.82,0.46 -8.03,0.15 -15.3,1.24 -21.94,3.09 -6.65,1.86 -12.68,4.64 -17.93,8.5 -5.26,3.87 -9.74,9.28 -13.3,16.23 -3.71,7.11 -6.34,16.08 -8.34,26.9 -1.86,10.82 -2.79,24.11 -2.79,39.87l0 5.25z"/>
  <path id="_4_3" class="fil3" d="M7371.94 1692.53c0,-7.11 -0.31,-13.29 -0.93,-18.24 -0.78,-5.1 -2.32,-9.27 -4.64,-12.36 -2.47,-3.25 -5.87,-5.41 -10.36,-6.96 -4.48,-1.39 -10.35,-2.16 -17.77,-2.16 -4.95,0 -11.13,0.31 -18.39,0.77 -7.12,0.62 -14.69,1.39 -22.57,2.63l-2.32 -18.7c22.26,-5.72 41.26,-10.05 57.18,-12.68 15.92,-2.78 29.06,-4.17 39.56,-4.17 9.89,0 17.62,1.39 23.03,4.02 5.26,2.62 9.28,6.49 11.75,11.74 2.47,5.26 3.86,11.6 4.33,19.17 0.46,7.58 0.77,16.08 0.77,25.81 0,3.25 -0.31,12.22 -0.62,26.59 -0.31,14.38 -0.93,32.92 -1.54,55.48 -0.78,22.57 -1.55,48.53 -2.48,77.74 -0.93,29.37 -1.85,60.43 -2.78,93.35 -0.93,33.08 -2.01,67.07 -3.09,102.32 -1.08,35.07 -2.01,69.85 -3.09,104.32l-53.63 6.8 -4.17 -0.46c1.85,-43.27 3.4,-84.39 4.94,-123.02 1.4,-38.79 2.63,-76.35 3.71,-112.97 1.09,-36.62 1.86,-72.79 2.32,-108.65 0.62,-35.86 0.78,-72.64 0.78,-110.36z"/>
  <path id="_5_4" class="fil3" d="M8348.39 1692.53c0,-7.11 -0.31,-13.29 -1.08,-18.24 -0.62,-5.1 -2.17,-9.27 -4.64,-12.36 -2.32,-3.25 -5.87,-5.41 -10.2,-6.96 -4.48,-1.39 -10.36,-2.16 -17.78,-2.16 -5.1,0 -11.12,0.31 -18.39,0.77 -7.26,0.62 -14.84,1.39 -22.57,2.63l-2.32 -18.7c22.11,-5.72 41.26,-10.05 57.19,-12.68 15.92,-2.78 29.05,-4.17 39.4,-4.17 10.05,0 17.62,1.39 23.03,4.02 5.41,2.62 9.28,6.49 11.75,11.74 2.47,5.26 4.02,11.6 4.48,19.17 0.47,7.58 0.62,16.08 0.62,25.81 0,0.62 0,5.57 -0.15,15 -0.16,9.27 -0.47,21.64 -0.78,37.24 -0.46,15.46 -0.92,33.39 -1.39,53.78 -0.62,20.4 -1.24,42.19 -1.85,65.06 -0.62,22.73 -1.39,46.36 -2.32,70.48 -0.93,24.11 -2.01,47.59 -3.09,70.32 -1.09,22.87 -2.32,44.5 -3.56,64.75 -1.39,20.4 -2.78,38.17 -4.33,53.47 14.53,-2.16 28.29,-3.71 41.11,-4.63 12.83,-0.93 24.73,-1.4 35.69,-1.4 15.62,0 30.15,0.31 43.58,1.24 13.45,0.77 26.9,1.24 39.87,1.24 9.28,0 17.47,-1.39 24.58,-4.18 7.26,-2.62 13.45,-7.42 18.55,-14.22 5.1,-6.8 9.43,-16.07 12.83,-27.66 3.4,-11.6 5.87,-26.44 7.73,-44.36l19.78 1.55c-0.15,26.59 -1.85,48.52 -4.95,65.68 -3.09,17 -7.57,30.61 -13.29,40.49 -5.72,9.89 -12.67,16.69 -20.87,20.56 -8.19,3.86 -17.62,5.72 -28.13,5.72 -8.04,0 -16.85,-0.62 -26.58,-2.17 -9.59,-1.54 -20.1,-3.24 -31.54,-5.1 -11.43,-1.85 -23.8,-3.55 -37.08,-5.1 -13.3,-1.55 -27.52,-2.32 -42.96,-2.32 -13.76,0 -28.6,0.93 -44.66,2.63 -16.08,1.7 -32.62,4.64 -49.46,8.66l-4.17 -0.47c2.63,-20.56 4.79,-42.8 6.65,-66.61 2.01,-23.8 3.55,-48.52 4.79,-74.18 1.24,-25.66 2.47,-51.93 3.24,-78.67 0.93,-26.89 1.7,-53.78 2.17,-80.67 0.46,-26.9 0.62,-53.32 0.77,-79.44 0.16,-26.12 0.31,-51.31 0.31,-75.58z"/>
  <path id="_6_5" class="fil3" d="M9496.24 1691.3c0,-6.34 -0.46,-11.75 -1.55,-16.23 -0.92,-4.49 -2.78,-8.2 -5.41,-10.98 -2.62,-2.78 -6.18,-4.79 -10.97,-6.18 -4.64,-1.24 -10.66,-1.86 -18.08,-1.86 -4.8,0 -10.21,0.31 -16.23,0.78 -6.19,0.46 -12.99,1.23 -20.72,2.16l-2.47 -21.02c14.84,-2.32 28.6,-4.33 41.26,-6.03 12.68,-1.7 24.58,-3.24 35.55,-4.48 11.13,-1.39 21.49,-2.32 31.22,-2.94 9.59,-0.62 18.71,-0.92 27.36,-0.92 23.81,0 46.52,-0.16 67.85,-0.47 21.33,-0.46 40.33,-0.77 56.87,-1.24 16.39,-0.3 29.99,-0.77 40.64,-1.08 10.67,-0.31 17.16,-0.62 19.63,-0.62 6.96,0 12.22,1.7 15.92,4.95 3.71,3.25 5.57,8.19 5.57,14.99 0,2.79 -0.31,8.04 -0.77,15.92 -0.47,7.89 -1.24,16.85 -2.01,27.05 -0.93,10.21 -1.86,20.87 -2.94,32.31 -0.93,11.28 -2.16,21.79 -3.4,31.69l-21.64 -0.78c0.31,-5.72 0.46,-10.97 0.62,-16.07 0.15,-4.95 0.31,-9.58 0.31,-14.07 0,-12.67 -0.78,-22.87 -2.32,-30.76 -1.55,-8.03 -4.33,-14.22 -8.19,-18.7 -4.02,-4.64 -9.59,-7.73 -16.54,-9.27 -6.96,-1.7 -15.77,-2.63 -26.43,-2.79 -15,-0.15 -28.14,-0.31 -39.42,-0.31 -11.28,-0.15 -22.1,-0.15 -32.61,-0.15l-11.91 0c-5.87,0 -11.59,0 -17.62,0.15 -6.02,0 -13.13,0.31 -21.64,0.47 -0.31,12.67 -0.61,26.58 -0.92,42.03 -0.47,15.46 -0.93,32 -1.39,49.76 -0.31,17.62 -0.93,36.33 -1.4,55.95 -0.46,19.63 -1.08,39.71 -1.7,60.58 19.48,0.93 36.79,1.54 51.77,2.01 15.15,0.31 29.06,0.46 41.88,0.46 15.61,0 29.37,-0.46 41.42,-1.39 11.9,-1.08 23.34,-2.63 34,-4.64 2.48,6.65 3.71,12.52 3.71,17.78 0,4.48 -1.39,8.19 -4.17,11.13 -2.63,3.09 -6.49,5.56 -11.44,7.42 -5.1,1.85 -11.13,3.24 -18.24,4.02 -6.95,0.92 -14.99,1.23 -23.65,1.23 -15.61,0 -33.23,-0.77 -52.85,-2.62 -19.78,-1.71 -40.8,-3.87 -63.36,-6.34 -0.31,8.65 -0.62,19.16 -1.09,31.53 -0.46,12.37 -1.08,25.35 -1.54,39.25 -0.62,13.91 -1.39,28.13 -2.17,42.65 -0.92,14.69 -1.7,28.6 -2.47,41.88 -0.93,13.45 -1.85,25.66 -2.78,36.79 -0.93,10.97 -2.01,20.09 -3.09,27.2 14.68,-2.16 28.9,-3.71 42.8,-4.63 13.92,-0.93 26.44,-1.4 37.86,-1.4 15.77,0 30.61,0.31 44.36,1.24 13.91,0.77 27.51,1.24 41.1,1.24 9.12,0 17,-1.24 23.96,-3.87 6.8,-2.47 12.83,-6.8 17.93,-13.29 5.25,-6.34 9.43,-14.99 12.83,-25.97 3.4,-10.82 6.03,-24.57 8.04,-41.41l20.4 1.23c-0.46,25.35 -2.32,46.21 -5.41,62.6 -3.25,16.53 -7.57,29.52 -13.29,38.94 -5.72,9.58 -12.52,16.23 -20.72,19.78 -8.19,3.71 -17.31,5.57 -27.66,5.57 -8.04,0 -17.01,-0.62 -26.9,-2.17 -9.74,-1.54 -20.56,-3.24 -32.15,-5.1 -11.59,-1.85 -24.27,-3.55 -37.7,-5.1 -13.45,-1.55 -27.98,-2.32 -43.58,-2.32 -13.76,0 -28.91,0.93 -45.44,2.63 -16.54,1.7 -33.38,4.64 -50.69,8.66l-4.17 -0.47c2.32,-14.99 4.33,-33.23 6.03,-54.71 1.7,-21.48 3.24,-44.81 4.64,-70.32 1.39,-25.34 2.47,-52.23 3.4,-80.52 0.92,-28.13 1.7,-56.71 2.31,-85.46 0.62,-28.75 0.93,-57.18 1.24,-85.32 0.16,-28.13 0.31,-54.86 0.31,-80.05z"/>
 </g>
</svg>
